# xmcd
#
# Track frame offsets:
#	182
#	11737
#	26120
#	39950
#	54575
#	68870
#	82767
#	98557
#	112235
#	129410
#	148955
#	164060
#	176632
#	189180
#	203652
#	218000
#	232850
#	246650
#
# Disc length: 3451
#
# Revision: 1
# Processed by: cddbd v1.5.1PL0 Copyright (c) Steve Scherf et al.
# Submitted via: VisiTrax 2.9.3.171 - For more info visit www.synapsa.com
# Normalized: r0:DSETVAR1
#
DISCID=fb0d7912
DTITLE=Various Artist - Country Fun Disc 1
DYEAR=1900
DGENRE=
TTITLE0=John Michael Montgomery - Sold (The Gundy County Auction Incident)
TTITLE1=Faith Hill - Let's Go To Vegas
TTITLE2=Michael Peterson - Drink, Swear, Steal, and Lie
TTITLE3=Sawyer Brown - Some Girls Do
TTITLE4=Bryan White - Sittin' On Go
TTITLE5=Dwight Yoakam - Guitars, Cadillacs
TTITLE6=Little Texas - God Blessed Texas
TTITLE7=David Ball - Thinkin' Problem
TTITLE8=Claudia Church - What's The Matter With You Baby
TTITLE9=Lila McCann - I Wanna Fall In Love
TTITLE10=David Lee Murphy - Party Crowd
TTITLE11=Tracy Lawrence - My Second Home
TTITLE12=Lorrie Morgan - What Part Of No
TTITLE13=Travis Tritt - Country Club
TTITLE14=Sammy Kershaw - National Working Woman's Holiday
TTITLE15=Confederate Railroad - Trashy Women
TTITLE16=Tracy Byrd - Watermelon Crawl
TTITLE17=Neal McCoy - Wink
EXTD=
EXTT0=
EXTT1=
EXTT2=
EXTT3=
EXTT4=
EXTT5=
EXTT6=
EXTT7=
EXTT8=
EXTT9=
EXTT10=
EXTT11=
EXTT12=
EXTT13=
EXTT14=
EXTT15=
EXTT16=
EXTT17=
PLAYORDER=
